HIERARCHY
ROOT Hips
{
 OFFSET 0.000000 0.000000 0.000000
 CHANNELS 6 Xposition Yposition Zposition Yrotation Xrotation Zrotation
 JOINT Chest
 {
  OFFSET 0.000000 9.588913 -0.003946
  CHANNELS 3 Yrotation Xrotation Zrotation
  JOINT Chest2
  {
   OFFSET 0.000000 9.541882 0.008053
   CHANNELS 3 Yrotation Xrotation Zrotation
   JOINT Chest3
   {
    OFFSET 0.000000 9.501360 0.000000
    CHANNELS 3 Yrotation Xrotation Zrotation
    JOINT Chest4
    {
     OFFSET 0.000000 9.491660 0.000000
     CHANNELS 3 Yrotation Xrotation Zrotation
     JOINT Neck
     {
      OFFSET 0.000000 14.331917 0.000000
      CHANNELS 3 Yrotation Xrotation Zrotation
      JOINT Head
      {
       OFFSET 0.000000 8.884799 0.017034
       CHANNELS 3 Yrotation Xrotation Zrotation
       End Site
       {
        OFFSET 0.000000 16.896195 0.008993
       }
      }
     }
     JOINT RightCollar
     {
      OFFSET -2.923010 9.499495 0.000000
      CHANNELS 3 Yrotation Xrotation Zrotation
      JOINT RightShoulder
      {
       OFFSET -13.795216 0.000000 0.000000
       CHANNELS 3 Yrotation Xrotation Zrotation
       JOINT RightElbow
       {
        OFFSET -30.272209 0.000000 0.000000
        CHANNELS 3 Yrotation Xrotation Zrotation
        JOINT RightWrist
        {
         OFFSET -24.478199 0.000000 0.000000
         CHANNELS 3 Yrotation Xrotation Zrotation
         End Site
         {
          OFFSET -18.090752 0.000000 0.000000
         }
        }
       }
      }
     }
     JOINT LeftCollar
     {
      OFFSET 2.923010 9.499495 0.000000
      CHANNELS 3 Yrotation Xrotation Zrotation
      JOINT LeftShoulder
      {
       OFFSET 13.795216 0.000000 0.000000
       CHANNELS 3 Yrotation Xrotation Zrotation
       JOINT LeftElbow
       {
        OFFSET 30.272209 0.000000 0.000000
        CHANNELS 3 Yrotation Xrotation Zrotation
        JOINT LeftWrist
        {
         OFFSET 24.478199 0.000000 0.000000
         CHANNELS 3 Yrotation Xrotation Zrotation
         End Site
         {
          OFFSET 18.090752 0.000000 0.000000
         }
        }
       }
      }
     }
    }
   }
  }
 }
 JOINT RightHip
 {
  OFFSET -7.826875 0.019532 0.001973
  CHANNELS 3 Yrotation Xrotation Zrotation
  JOINT RightKnee
  {
   OFFSET 0.000000 -40.546152 -0.001885
   CHANNELS 3 Yrotation Xrotation Zrotation
   JOINT RightAnkle
   {
    OFFSET 0.000000 -39.417092 -0.003189
    CHANNELS 3 Yrotation Xrotation Zrotation
    JOINT RightToe
    {
     OFFSET 0.000000 -7.579396 17.243563
     CHANNELS 3 Yrotation Xrotation Zrotation
     End Site
     {
      OFFSET 0.000000 -1.500329 6.694466
     }
    }
   }
  }
 }
 JOINT LeftHip
 {
  OFFSET 7.826875 0.019532 0.001973
  CHANNELS 3 Yrotation Xrotation Zrotation
  JOINT LeftKnee
  {
   OFFSET 0.000000 -40.546152 -0.001885
   CHANNELS 3 Yrotation Xrotation Zrotation
   JOINT LeftAnkle
   {
    OFFSET 0.000000 -39.417092 -0.003189
    CHANNELS 3 Yrotation Xrotation Zrotation
    JOINT LeftToe
    {
     OFFSET 0.000000 -7.579396 17.243563
     CHANNELS 3 Yrotation Xrotation Zrotation
     End Site
     {
      OFFSET 0.000000 -1.500329 6.694466
     }
    }
   }
  }
 }
}
MOTION
Frames: 12
Frame Time: 0.008333
10.985073 89.172865 23.688760 -66.202521 -6.522793 -8.849517 2.250716 6.920116 -1.142949 1.161862 3.932715 -0.669697 1.445972 4.917936 -0.825101 1.161863 3.932720 -0.669697 4.197060 31.620031 0.985378 4.482852 10.088817 0.163763 -8.213848 3.467945 -3.273233 -0.183512 -3.545458 88.134573 24.370519 6.492241 7.628625 2.696539 -7.005125 0.884661 -21.159766 -2.944307 1.019768 9.784496 -40.405041 -65.501248 -2.822723 -0.753982 8.586534 -15.593900 -3.849332 22.282951 -1.733152 -2.300631 -5.091327 5.073907 16.381690 1.288025 8.558285 5.343546 21.082730 1.062575 -14.774238 -8.884968 22.064211 1.057738 6.201557 -2.555086 13.130637 0.486527 -3.578813 -19.999105 -20.476002 -0.020445 0.001187 1.116571
10.919838 89.148359 23.660997 -66.120124 -6.612910 -8.963081 2.253218 6.920000 -1.181740 1.167198 3.928433 -0.695384 1.452376 4.912672 -0.857183 1.167199 3.928437 -0.695385 4.234002 31.668401 1.040187 4.513224 10.156430 0.217436 -8.230227 3.505394 -3.258945 -0.196703 -3.514616 88.158682 24.285860 6.590743 7.674220 2.659197 -6.995960 0.899516 -21.167851 -2.892910 0.990215 9.824464 -40.362126 -65.433891 -2.849770 -0.519065 8.602306 -15.913488 -3.864086 22.393389 -1.785700 -2.288875 -4.997452 5.070951 16.504184 1.291756 8.585994 5.314975 21.056941 1.045167 -14.808964 -8.852202 22.076664 0.990668 6.378600 -2.530197 13.411215 0.575550 -3.716830 -20.194840 -20.849318 0.000364 0.017253 1.083424
10.840145 89.124654 23.633440 -66.026296 -6.699545 -9.089420 2.249632 6.915338 -1.218176 1.171579 3.920750 -0.718238 1.457621 4.903148 -0.885744 1.171580 3.920753 -0.718240 4.265983 31.720289 1.086467 4.540027 10.228778 0.262718 -8.244921 3.543462 -3.254918 -0.222068 -3.476464 88.174840 24.184551 6.702548 7.728993 2.622161 -6.985871 0.923197 -21.175611 -2.846331 0.966469 9.861512 -40.292634 -65.372082 -2.870707 -0.299786 8.618117 -16.255048 -3.879678 22.528979 -1.836550 -2.293466 -4.901201 5.070777 16.635521 1.289967 8.601510 5.299780 21.056732 1.034184 -14.846250 -8.825372 22.124107 0.930718 6.569627 -2.521072 13.670129 0.670100 -3.856265 -20.404144 -21.209913 0.023174 0.045074 1.042188
10.743513 89.102648 23.607376 -65.916665 -6.787115 -9.219769 2.237740 6.908689 -1.255363 1.174291 3.911388 -0.739319 1.460802 4.891517 -0.912108 1.174293 3.911391 -0.739321 4.292081 31.772829 1.124161 4.562163 10.301873 0.299716 -8.259998 3.580194 -3.260321 -0.255948 -3.431413 88.184665 24.071256 6.824628 7.788205 2.582257 -6.974133 0.956590 -21.180020 -2.804132 0.950160 9.877102 -40.198980 -65.312775 -2.881582 -0.124517 8.631292 -16.610007 -3.905257 22.684293 -1.885465 -2.312726 -4.815202 5.070067 16.781771 1.285038 8.601279 5.293682 21.073420 1.027299 -14.870006 -8.794472 22.176089 0.895662 6.773317 -2.522984 13.894864 0.753661 -3.988840 -20.617633 -21.534251 0.047052 0.080601 0.983482
10.628571 89.083529 23.582069 -65.787637 -6.875429 -9.351926 2.217629 6.901401 -1.294116 1.175221 3.901549 -0.758621 1.461775 4.879281 -0.936268 1.175223 3.901552 -0.758622 4.311130 31.822579 1.154540 4.577939 10.370899 0.330068 -8.279593 3.613019 -3.270548 -0.296380 -3.379508 88.190819 23.948501 6.951566 7.842185 2.539328 -6.956848 0.995174 -21.180421 -2.765046 0.937122 9.851321 -40.091673 -65.244449 -2.869842 -0.002623 8.644350 -16.976026 -3.936910 22.835664 -1.936909 -2.345814 -4.742928 5.065795 16.945366 1.279613 8.585632 5.293685 21.092159 1.020925 -14.861235 -8.747049 22.207610 0.895232 6.985267 -2.538055 14.073266 0.823718 -4.098482 -20.828051 -21.803286 0.073645 0.122976 0.897607
10.496020 89.068528 23.556045 -65.637887 -6.961008 -9.483642 2.189651 6.892978 -1.336133 1.174104 3.891604 -0.776459 1.460204 4.866902 -0.958621 1.174105 3.891606 -0.776461 4.323278 31.866647 1.179239 4.587088 10.431855 0.355533 -8.302474 3.642789 -3.280198 -0.346595 -3.324539 88.194137 23.813243 7.077480 7.885279 2.498528 -6.931906 1.032738 -21.172576 -2.730883 0.920292 9.772968 -39.983105 -65.152047 -2.830360 0.076711 8.654907 -17.337742 -3.957369 22.960780 -1.994604 -2.391871 -4.685290 5.058730 17.126415 1.275992 8.554969 5.295848 21.100946 1.011522 -14.805256 -8.675327 22.209108 0.931017 7.197846 -2.570219 14.197830 0.882256 -4.177701 -21.028200 -21.995519 0.104313 0.171642 0.775368
10.349208 89.058699 23.528227 -65.468370 -7.038361 -9.607846 2.154409 6.881408 -1.384788 1.170694 3.880989 -0.794295 1.455767 4.853684 -0.980995 1.170696 3.880992 -0.794296 4.327755 31.904306 1.198864 4.588573 10.483675 0.376951 -8.327166 3.671133 -3.286647 -0.414085 -3.265747 88.196669 23.666121 7.202789 7.917635 2.465523 -6.904712 1.062629 -21.154867 -2.703839 0.897175 9.653768 -39.883131 -65.034460 -2.769136 0.138693 8.660945 -17.664213 -3.948315 23.046880 -2.057271 -2.451953 -4.644484 5.050544 17.328611 1.273098 8.507466 5.292978 21.096213 0.995480 -14.693257 -8.579214 22.182488 1.000853 7.401547 -2.608141 14.263026 0.927396 -4.241913 -21.208805 -22.086445 0.138377 0.226075 0.612112
10.193366 89.054883 23.498816 -65.285400 -7.106158 -9.711259 2.117158 6.867784 -1.449152 1.166061 3.869053 -0.813044 1.449794 4.838813 -1.004530 1.166062 3.869056 -0.813046 4.322226 31.935302 1.213686 4.579685 10.525860 0.395128 -8.357810 3.698229 -3.289165 -0.504412 -3.198484 88.200547 23.512659 7.329386 7.939427 2.439134 -6.886698 1.080622 -21.133863 -2.682794 0.870341 9.526569 -39.800011 -64.908625 -2.696268 0.215642 8.663961 -17.951928 -3.909215 23.090435 -2.118380 -2.523137 -4.626043 5.045999 17.556843 1.265116 8.442788 5.271630 21.084464 0.969817 -14.523389 -8.466628 22.139867 1.097219 7.579307 -2.637710 14.284335 0.961480 -4.306633 -21.402101 -22.065882 0.185035 0.314750 0.416007
10.034150 89.058384 23.463875 -65.091703 -7.157279 -9.809284 2.079966 6.845831 -1.512800 1.161605 3.855759 -0.832705 1.444037 4.822247 -1.029204 1.161607 3.855762 -0.832707 4.307101 31.958411 1.224880 4.560591 10.556722 0.411273 -8.394947 3.723448 -3.287780 -0.620155 -3.121390 88.206255 23.353491 7.450812 7.950704 2.419177 -6.883161 1.081450 -21.112428 -2.665779 0.842884 9.415581 -39.739654 -64.794297 -2.622729 0.326642 8.669931 -18.220365 -3.855927 23.104340 -2.177996 -2.604974 -4.605621 5.050728 17.801610 1.247735 8.364795 5.245984 21.070517 0.938395 -14.315134 -8.346127 22.086592 1.216171 7.743094 -2.662995 14.234535 0.985860 -4.366827 -21.534352 -21.927665 0.223260 0.387691 0.186328
9.877778 89.069898 23.423500 -64.897284 -7.194700 -9.898082 2.045348 6.817998 -1.579211 1.157596 3.840984 -0.853094 1.438836 4.803832 -1.054790 1.157598 3.840987 -0.853096 4.285721 31.974008 1.232207 4.535130 10.576960 0.424383 -8.431512 3.745404 -3.285038 -0.758114 -3.037995 88.213995 23.181721 7.555801 7.953085 2.410019 -6.888747 1.060778 -21.085340 -2.650239 0.814744 9.330303 -39.702284 -64.705098 -2.559319 0.471214 8.689307 -18.479794 -3.807547 23.108851 -2.223926 -2.695596 -4.584143 5.064490 18.069788 1.223642 8.282809 5.208517 21.055305 0.900389 -14.079563 -8.224836 22.022051 1.351440 7.882570 -2.695996 14.128516 1.008238 -4.403780 -21.631921 -21.679787 0.260602 0.464790 -0.066049
9.730048 89.089800 23.378811 -64.708382 -7.222879 -9.972718 2.014361 6.787682 -1.654515 1.153514 3.824753 -0.873349 1.433550 4.783596 -1.080213 1.153516 3.824755 -0.873352 4.260070 31.983691 1.234414 4.505861 10.588887 0.432631 -8.463025 3.765585 -3.285075 -0.908207 -2.956921 88.224487 22.987839 7.634337 7.946358 2.411915 -6.898955 1.023217 -21.051976 -2.635399 0.784101 9.275524 -39.683677 -64.647078 -2.509591 0.641751 8.727134 -18.742809 -3.780455 23.130269 -2.247125 -2.792103 -4.567945 5.088570 18.364101 1.200034 8.202789 5.156825 21.034225 0.855439 -13.827577 -8.103769 21.943234 1.497059 7.987888 -2.738151 13.988807 1.039814 -4.412270 -21.734486 -21.333831 0.306182 0.572662 -0.329851
9.594593 89.118796 23.327412 -64.518640 -7.240792 -10.055001 1.985575 6.752459 -1.718489 1.149162 3.808506 -0.892012 1.427944 4.763335 -1.103646 1.149164 3.808508 -0.892014 4.228529 31.986971 1.230243 4.471232 10.591752 0.434954 -8.489435 3.783404 -3.291757 -1.062052 -2.881292 88.239649 22.768313 7.679545 7.926595 2.418428 -6.913454 0.979887 -21.014415 -2.626580 0.751283 9.248403 -39.676526 -64.623595 -2.469949 0.832825 8.781865 -19.029309 -3.785802 23.197678 -2.256309 -2.889559 -4.538882 5.129397 18.671346 1.189583 8.128068 5.109807 20.998222 0.805985 -13.578061 -7.982041 21.856981 1.647024 8.082220 -2.772189 13.795899 1.084445 -4.421051 -21.764870 -20.892490 0.337296 0.653981 -0.603564
